<svg xmlns="http://www.w3.org/2000/svg" xmlns:xlink="http://www.w3.org/1999/xlink" viewBox="0 0 489.43 565.14"><defs><style>.cls-1{fill:url(#linear-gradient);}.cls-2{fill:#fff;}.cls-3{fill:url(#linear-gradient-2);}</style><linearGradient id="linear-gradient" y1="282.57" x2="489.43" y2="282.57" gradientUnits="userSpaceOnUse"><stop offset="0" stop-color="#2fbdc4"/><stop offset="1" stop-color="#72c42f"/></linearGradient><linearGradient id="linear-gradient-2" x1="48.94" y1="310.83" x2="440.48" y2="310.83" gradientUnits="userSpaceOnUse"><stop offset="0" stop-color="#4e1d77"/><stop offset="1" stop-color="#d395f2"/></linearGradient></defs><g id="Layer_2" data-name="Layer 2"><g id="Layer_1-2" data-name="Layer 1"><path class="cls-1" d="M0,175.93V389.21a60,60,0,0,0,30,52L214.71,547.82a60,60,0,0,0,60,0L459.43,441.18a60,60,0,0,0,30-52V170.15a50,50,0,0,0-25-43.3L274.71,17.32a60,60,0,0,0-60,0L30,124A60,60,0,0,0,0,175.93Z"/><polygon class="cls-2" points="440.48 113.03 440.48 226.06 440.47 226.06 342.63 282.55 342.59 282.52 342.59 169.54 244.71 113.03 146.83 169.54 244.67 226.03 244.71 226.06 244.75 226.03 342.59 282.52 342.59 282.57 440.48 339.08 440.48 452.11 342.6 508.62 342.59 508.62 244.71 565.14 146.83 508.62 146.82 508.62 48.94 452.11 48.94 339.08 146.83 282.57 146.83 395.6 244.71 452.11 342.59 395.6 244.71 339.08 146.83 282.57 146.83 282.52 146.79 282.55 48.95 226.06 48.94 226.06 48.94 113.03 48.95 113.03 244.71 0 440.47 113.03 440.48 113.03"/><polygon class="cls-3" points="440.48 113.03 440.48 452.12 342.6 508.63 342.59 508.63 342.59 282.57 342.63 282.56 342.59 282.52 342.59 282.57 244.71 339.08 146.83 282.57 146.83 282.52 146.79 282.56 146.83 282.57 146.83 508.63 146.82 508.63 48.94 452.12 48.94 113.03 48.95 113.03 146.83 169.54 244.67 226.03 244.71 226.06 244.75 226.03 342.59 169.54 440.47 113.03 440.48 113.03"/></g></g></svg>