<svg xmlns="http://www.w3.org/2000/svg" viewBox="0 0 492.36 540.99"><defs><style>.cls-1{fill:#fff;}.cls-2{fill:#d395f2;}.cls-3{fill:#4e1d77;}</style></defs><g id="Layer_2" data-name="Layer 2"><g id="Layer_1-2" data-name="Layer 1"><path class="cls-1" d="M7.53,165c2.94,21.33,2.94,213.29,0,234.62,2.94-2.26,13,15.37,32.3,56.74-2.93-31.65-2.93-316.45,0-348.1C20.53,149.61,10.47,167.24,7.53,165Z" transform="translate(-7.53 -12.16)"/><path class="cls-1" d="M253.71,442.08c0-14.41,79.29-60.18,96.9-55.95-17.61-4.23-90.29-46.2-88.82-51.29-1.47,5.09-8.08,8.91-8.08,4.67,0,4.24-79.28-41.54-96.9-55.95,17.62,14.41,17.62,98.34,0,102.57C174.43,381.9,253.71,427.67,253.71,442.08Z" transform="translate(-7.53 -12.16)"/><path class="cls-1" d="M472.39,111c2.07,31.14-1.86,28.87-4.8-2.77,2.94,31.64,2.94,316.46,0,348.11,19.31-41.37,29.37-59,32.3-56.74-2.93-21.33-2.93-218.49,0-241C497,165,488.38,150.18,472.39,111Z" transform="translate(-7.53 -12.16)"/><path class="cls-1" d="M170.27,173.5c15.17,0,83.4,39.4,83.39,48.15,0-8.75.05-8.72.05,0,0-8.76,0-8.79,0,0,0-8.75,68.23-48.15,83.4-48.15-15.17,0-83.45-39.42-83.45-48.18C253.71,134.08,185.44,173.5,170.27,173.5Z" transform="translate(-7.53 -12.16)"/><path class="cls-1" d="M350.62,482.81q-26.43,8.78,0,0c-17.61,5.85-96.9,51.63-96.9,55.95,0-4.32-79.28-50.1-96.9-55.95q26.43,8.78,0,0c17.62,5.85,0-4.32-21.52-12.43,21.53,8.11,21.53,33.55,0,31.08,21.53,2.47,91.43,42.82,85.43,49.33a232.39,232.39,0,0,0,66,0c-6-6.51,63.9-46.86,85.44-49.33-21.54,2.47-21.54-23,0-31.08C350.61,478.49,333,488.66,350.62,482.81Z" transform="translate(-7.53 -12.16)"/><path class="cls-1" d="M362,278.76c-1.22,1.41-12.23,7.77-13.45,7.77,1.22,0,12.23,6.35,13.45,7.77C360.77,292.88,360.77,280.17,362,278.76Z" transform="translate(-7.53 -12.16)"/><path class="cls-1" d="M361.38,279.41v.06s0,0,.05,0Z" transform="translate(-7.53 -12.16)"/><path class="cls-1" d="M145.43,278.76c1.23,1.41,1.23,14.12,0,15.54,1.23-1.42,12.23-7.77,13.46-7.77C157.66,286.53,146.66,280.17,145.43,278.76Z" transform="translate(-7.53 -12.16)"/><path class="cls-1" d="M146,279.45l.05,0a.06.06,0,0,1,0-.06Z" transform="translate(-7.53 -12.16)"/><path class="cls-1" d="M253.71,24.19c0,7.57,147.56,92.77,180.35,104.13C401.27,117,423.3,104.24,461,112.78,423.3,104.24,280.71,21.92,286.71,12.16c-22.7.11-43.29.11-66,0,6,9.76-136.58,92.08-174.27,100.62,37.69-8.54,59.72,4.18,26.93,15.54C106.16,117,253.71,31.76,253.71,24.19Z" transform="translate(-7.53 -12.16)"/><path class="cls-2" d="M73.37,124.83c32.79-4.38,83.44,24.86,61.91,35.74,21.53-10.88,50.16,5.65,35,20.21,15.17-14.56,83.44-54,83.44-48.18,0-5.79,68.28,33.62,83.45,48.18-15.17-14.56,13.45-31.09,35-20.21-21.54-10.88,29.12-40.12,61.91-35.74C401.27,120.45,253.71,35.25,253.71,20.7,253.71,35.25,106.16,120.45,73.37,124.83Z" transform="translate(-7.53 -12.16)"/><path class="cls-2" d="M156.81,493.15c17.62-14.83,96.9,31,96.9,56,0-25,79.29-70.78,96.9-56q-26.42-22.25,0,0c-17.62-14.83,0-25,21.53-12.43-21.54-12.57-21.54-175.33,0-198.93-21.54,23.6-32.54,17.24-13.46-7.76-19.08,25-98.37,70.78-96.9,55.94-1.47,14.84,71.21,56.8,88.82,51.29-17.61,5.51-96.9,51.28-96.9,55.94,0-4.66-79.28-50.43-96.9-55.94,17.62,5.51,17.62-78.41,0-102.57,17.62,24.16,11,20.34-8.08-4.66,19.09,25,8.08,31.36-13.45,7.76,21.53,23.6,21.53,186.36,0,198.93,21.53-12.57,39.14-2.4,21.52,12.43Q183.23,470.91,156.81,493.15Z" transform="translate(-7.53 -12.16)"/><path class="cls-3" d="M490.59,71.22q-64.59,65.27,0,0C447.52,114.73,423.3,128.71,461,88.3c-37.69,40.41-59.72,53.13-26.93,15.55-32.79,37.58-83.45,66.83-61.91,35.74-21.54,31.09-50.16,47.61-35,20.2C322,187.2,253.75,226.6,253.76,208q0,28,0,0,0,28-.05,0c0,18.65-68.22-20.75-83.39-48.16,15.17,27.41-13.46,10.89-35-20.2,21.53,31.09-29.12,1.84-61.91-35.74,32.79,37.58,10.76,24.86-26.93-15.55,37.69,40.41,13.47,26.43-29.6-17.08q64.6,65.27,0,0c43.07,43.51,43.07,71.49,0,34.19,43.07,37.3,43.07,322.11,0,348.1,43.07-26,43.07-3.09,0,28,43.07-31.08,140,24.87,118.44,68.38q32.29-65.26,0,0c21.53-43.51,21.53-66.4,0-28,21.53-38.43,21.53-63.86,0-31.08,21.53-32.78,21.53-195.55,0-198.94,21.53,3.39,21.53-9.31,0-15.53q32.29,9.33-.05,0,32.31,9.33.05,0,32.29,9.34,0,.06c21.53,6.22,32.54,12.57,13.45,7.77,19.09,4.8,25.7,8.62,8.08,4.66,17.62,4,96.9,49.73,96.9,55.95,0-6.22,6.61-10,8.08-4.67-1.47-5.37,77.82-51.14,96.9-55.94-19.08,4.8-8.08-1.55,13.46-7.77q-32.31,9.33,0-.06-32.31,9.34.05,0-32.32,9.33-.05,0c-21.54,6.22-21.54,18.92,0,15.53-21.54,3.39-21.54,166.16,0,198.94-21.54-32.78-21.54-7.35,0,31.08-21.54-38.43-21.54-15.54,0,28q-32.31-65.26,0,0c-21.54-43.51,75.37-99.46,118.43-68.38-43.06-31.08-43.06-54,0-28-43.06-26-43.06-310.81,0-348.11C447.53,142.7,447.53,114.73,490.59,71.22Z" transform="translate(-7.53 -12.16)"/></g></g></svg>